HIERARCHY
ROOT Hips
{
	OFFSET 0.000000 0.000000 0.000000 
	CHANNELS 6 Xposition Yposition Zposition Yrotation Zrotation Xrotation 
	JOINT Lumbar
	{
		OFFSET 0.000000 0.000000 0.000000 
		CHANNELS 3 Zrotation Xrotation Yrotation
		JOINT Neck
		{
			OFFSET 0.000000 0.445665 0.000000 
			CHANNELS 3 Zrotation Xrotation Yrotation
			End Site
			{
				OFFSET 0.000000 0.227535 0.000000 
			}
		}
		JOINT RightShoulder
		{
			OFFSET 0.019635 0.377685 0.194865 
			CHANNELS 3 Zrotation Xrotation Yrotation
			JOINT RightElbow
			{
				OFFSET 0.000000 -0.243375 0.000000 
				CHANNELS 2 Zrotation Yrotation
				JOINT RightWrist
				{
					OFFSET 0.000000 -0.264825 0.000000 
					CHANNELS 2 Zrotation Xrotation
					End Site
					{
						OFFSET 0.006600 -0.176220 0.000990 
					}
				}
			}
		}
		JOINT LeftShoulder
		{
			OFFSET 0.019635 0.377685 -0.194865 
			CHANNELS 3 Zrotation Xrotation Yrotation
			JOINT LeftElbow
			{
				OFFSET 0.000000 -0.243375 0.000000 
				CHANNELS 2 Zrotation Yrotation
				JOINT LeftWrist
				{
					OFFSET 0.000000 -0.264825 0.000000 
					CHANNELS 2 Zrotation Xrotation
					End Site
					{
						OFFSET 0.006600 -0.176220 -0.000990 
					}
				}
			}
		}
	}
	JOINT RightHip
	{
		OFFSET 0.052140 -0.069960 0.075570 
		CHANNELS 3 Zrotation Xrotation Yrotation
		JOINT RightKnee
		{
			OFFSET 0.000000 -0.402270 0.000000 
			CHANNELS 1 Zrotation
			JOINT RightAnkle
			{
				OFFSET 0.000000 -0.404085 0.000000 
				CHANNELS 3 Zrotation Xrotation Yrotation
				End Site
				{
					OFFSET 0.204105 -0.089430 0.008415 
				}
			}
		}
	}
	JOINT LeftHip
	{
		OFFSET 0.052140 -0.069960 -0.075570 
		CHANNELS 3 Zrotation Xrotation Yrotation
		JOINT LeftKnee
		{
			OFFSET 0.000000 -0.402270 0.000000 
			CHANNELS 1 Zrotation
			JOINT LeftAnkle
			{
				OFFSET 0.000000 -0.404085 0.000000 
				CHANNELS 3 Zrotation Xrotation Yrotation
				End Site
				{
					OFFSET 0.204105 -0.089430 -0.008415 
				}
			}
		}
	}
}
MOTION
Frames: 16
Frame Time: 0.02
0.70442 -0.29644 0.18511 537.08254 -17.56986 -2.59757 19.43417 3.24635 -5.58335 -13.72029 7.11263 -0.83079 0.30827 -20.9219 1.36107 115.51636 77.90866 -6.9413 -1.1174 -19.23643 12.23112 1.96033 106.49783 -91.37438 1.08272 -4.63914 88.79209 -8.60964 -12.34774 -75.79153 -7.96215 -3.82998 -2.71449 92.38003 4.88938 5.55014 -76.42575 -9.66173 3.33283 2.52347
0.70457 -0.29673 0.18496 537.06203 -17.20407 -2.57572 19.80969 3.20734 -5.63775 -14.07077 6.87569 -0.83079 -0.66757 -19.96554 1.37208 115.43404 77.96434 -7.21229 -0.38574 -19.64676 12.04152 2.10287 106.3403 -89.94561 0.99636 -3.61692 88.43015 -8.54718 -12.27596 -75.89898 -7.89738 -3.7662 -2.66872 92.00235 4.77484 5.32565 -76.38385 -9.75537 3.29313 2.50419
0.70466 -0.29701 0.18478 537.03515 -16.85314 -2.5554 20.1796 3.16859 -5.67767 -14.44512 6.64515 -0.83079 -1.52882 -18.96358 1.37847 115.30006 77.66973 -7.62711 0.70266 -20.06941 11.89497 2.2102 106.18527 -88.278 0.90825 -2.36212 88.08572 -8.45868 -12.18449 -75.99472 -7.85387 -3.69072 -2.61573 91.64 4.57218 4.98903 -76.30833 -9.8986 3.26552 2.49371
0.70479 -0.29729 0.18461 537.01252 -16.49608 -2.53517 20.54638 3.13021 -5.72313 -14.8057 6.41572 -0.83079 -2.43646 -17.98875 1.38101 115.18952 77.51692 -7.97149 1.57546 -20.48052 11.72831 2.33201 106.0263 -86.76508 0.82123 -1.2495 87.73346 -8.38436 -12.10703 -76.08767 -7.80639 -3.6215 -2.56731 91.271 4.41391 4.71234 -76.24202 -10.02574 3.23219 2.47947
0.70487 -0.29756 0.18443 536.9842 -16.13718 -2.51154 20.93818 3.08975 -5.7732 -15.18114 6.16822 -0.83079 -3.36336 -16.98723 1.41412 115.07705 77.43503 -8.33741 2.66819 -20.91683 11.5638 2.4598 105.87705 -85.04961 0.73149 0.01959 87.38117 -8.30207 -12.01052 -76.21497 -7.73512 -3.54754 -2.51311 90.90069 4.23859 4.39978 -76.19798 -10.12986 3.19852 2.46369
0.70502 -0.29786 0.18427 536.96615 -15.78557 -2.49545 21.27548 3.05386 -5.81002 -15.52968 5.96072 -0.83079 -4.22526 -16.03099 1.37987 114.95778 77.12623 -8.69175 3.39336 -21.30311 11.40483 2.56667 105.70918 -83.70149 0.64764 1.01757 87.03341 -8.22806 -11.94653 -76.26797 -7.71828 -3.48136 -2.46955 90.53695 4.07733 4.13464 -76.10139 -10.29103 3.16912 2.45347
0.70535 -0.29823 0.18418 536.97859 -15.44766 -2.49898 21.47184 3.02857 -5.81554 -15.80598 5.85719 -0.83079 -4.92794 -15.20342 1.16721 114.82367 76.24056 -8.98916 2.97088 -21.5538 11.25414 2.62779 105.48713 -83.43922 0.57999 1.20182 86.68767 -8.20119 -11.9979 -76.11764 -7.84726 -3.43446 -2.45473 90.18518 3.97706 4.02675 -75.86118 -10.61086 3.14622 2.45568
0.70575 -0.29863 0.18412 537.00148 -15.11707 -2.51019 21.61199 3.00818 -5.80795 -16.0526 5.79472 -0.83079 -5.57014 -14.42457 0.88536 114.68575 75.14647 -9.26801 2.17414 -21.75297 11.10711 2.66857 105.24724 -83.55578 0.51891 1.1051 86.34691 -8.18072 -12.07947 -75.89313 -8.03001 -3.39672 -2.4513 89.84004 3.89381 3.97042 -75.57086 -10.98352 3.12775 2.46335
0.70612 -0.29901 0.18405 537.01919 -14.78461 -2.51842 21.77241 2.98684 -5.80514 -16.30748 5.71674 -0.83079 -6.2471 -13.62771 0.62979 114.55623 74.16966 -9.54898 1.57973 -21.97183 10.956 2.7165 105.01683 -83.48894 0.45496 1.14347 86.00776 -8.14483 -12.13263 -75.70319 -8.18778 -3.35823 -2.44431 89.49323 3.80205 3.89083 -75.3083 -11.32288 3.10898 2.46912
0.70647 -0.2994 0.18395 537.03846 -14.44592 -2.52458 21.9548 2.96027 -5.80654 -16.58557 5.62564 -0.83079 -6.89365 -12.81037 0.39451 114.39912 73.08018 -9.86229 0.8647 -22.20586 10.81597 2.77194 104.77942 -83.45245 0.38925 1.16367 85.65284 -8.15858 -12.24414 -75.50908 -8.34906 -3.30518 -2.43039 89.14076 3.71004 3.80636 -75.02352 -11.70321 3.08356 2.47285
0.70687 -0.29978 0.18392 537.05711 -14.12251 -2.53684 22.07828 2.94557 -5.79658 -16.80763 5.5716 -0.83079 -7.5852 -12.04969 0.10237 114.29627 72.18697 -10.10114 0.3035 -22.39713 10.65393 2.80748 104.55392 -83.45665 0.33027 1.14578 85.33178 -8.07368 -12.2453 -75.30633 -8.51492 -3.28446 -2.4335 88.80215 3.62429 3.7461 -74.77348 -12.01015 3.07269 2.48189
0.70741 -0.30016 0.18411 537.07088 -13.83278 -2.56414 22.05156 2.96403 -5.75578 -16.88462 5.60936 -0.83079 -8.46452 -11.41802 -0.34562 114.37079 71.8285 -10.14581 0.29193 -22.4715 10.42357 2.79217 104.35143 -83.38381 0.27531 1.14666 85.10225 -7.68992 -11.90191 -75.09697 -8.68539 -3.35381 -2.48286 88.494 3.54713 3.73745 -74.63283 -12.1004 3.10237 2.50516
0.70801 -0.30053 0.18436 537.08379 -13.55931 -2.59727 21.96767 2.99397 -5.7046 -16.90571 5.68302 -0.83079 -9.38334 -10.84472 -0.84566 114.49599 71.68452 -10.11456 0.44124 -22.50616 10.17208 2.75782 104.16374 -83.35387 0.22898 1.11002 84.90666 -7.21132 -11.45246 -74.88178 -8.85753 -3.45492 -2.54866 88.20064 3.47689 3.75233 -74.52893 -12.11487 3.14619 2.53336
0.70857 -0.3009 0.18458 537.09751 -13.28273 -2.6277 21.91091 3.01763 -5.66 -16.95069 5.7406 -0.83079 -10.2519 -10.25526 -1.31132 114.57998 71.48585 -10.11231 0.49176 -22.56708 9.93419 2.73305 103.97914 -83.37435 0.18768 1.0499 84.69595 -6.79273 -11.07304 -74.66979 -9.02547 -3.53955 -2.60565 87.90453 3.40696 3.7588 -74.40747 -12.1645 3.1825 2.55863
0.70916 -0.3013 0.18482 537.10985 -12.98846 -2.6587 21.84765 3.04599 -5.60698 -17.00091 5.79881 -0.83079 -11.25206 -9.62415 -1.824 114.73791 71.11066 -10.13111 0.63308 -22.59368 9.67899 2.70392 103.75428 -83.13023 0.11029 1.14061 84.4842 -6.30344 -10.60294 -74.45251 -9.20991 -3.63305 -2.66862 87.59196 3.32324 3.7577 -74.28745 -12.21307 3.22357 2.58702
0.70972 -0.30163 0.18502 537.12471 -12.73466 -2.68971 21.78469 3.06716 -5.5693 -17.02748 5.86347 -0.83079 -11.99158 -9.09246 -2.25104 114.75722 71.14229 -10.0903 0.63431 -22.68029 9.45553 2.67925 103.61479 -83.42058 0.10818 0.92521 84.28251 -5.93821 -10.29559 -74.24631 -9.3596 -3.71561 -2.72298 87.31699 3.26938 3.77691 -74.17434 -12.24505 3.25802 2.61001
